<svg width="112" height="126" viewBox="0 0 112 120" fill="none" xmlns="http://www.w3.org/2000/svg">
<path d="M42.9313 56.0032V32.0058L41.0648 30.006H35.4654L29.866 34.0056L26.1331 30.006L35.4654 16.0075H42.9313L46.6642 24.0067H69.0618L72.7947 16.0075H78.3941L85.8599 28.0062L82.127 34.0056L76.5276 30.006H72.7947L69.0618 34.0056V62.0025H72.7947L78.3941 56.0032L83.9935 66.0021V70.5736V76.001C83.7508 76.8649 82.9968 79.2027 81.1863 81.4264C80.4435 82.3403 79.5401 83.2342 78.3941 84.0002C76.1917 85.47 74.0545 85.874 72.7947 85.9999L76.5276 89.9995H81.6417L92.1145 78.0008C107.244 60.4967 113.319 41.4008 108.508 27.0663C105.307 17.5294 94.9254 3.05292 79.5886 2.08902C67.619 1.33711 58.617 13.5598 55.9965 16.0575L55.8061 16.0075C53.1856 13.5078 44.374 1.28711 32.4044 2.03903C17.0677 3.00293 6.68637 17.4794 3.48539 27.0163C-0.785084 39.741 3.52458 56.2172 15.1265 72.0035L19.3653 78.2748C26.0397 61.9785 40.9397 56.6671 42.9313 56.0032Z" fill="#A9CB73"/>
<path d="M54.13 117.996H61.5959V101.992V85.9999C60.336 85.8739 58.1989 85.47 55.9965 84.0001C55.2238 83.4842 54.5798 82.9023 53.9956 82.3043C51.6047 79.8486 50.6715 76.9809 50.3971 76.001V75.0451V70.5736V66.0021L55.9965 56.0032L61.5959 62.0025H69.0617V34.0056L72.7947 30.006H76.5276L82.127 34.0056L85.8599 28.0062L78.3941 16.0075H72.7947L69.0617 24.0066H46.6642L42.9312 16.0075H35.4654L26.1331 30.006L29.866 34.0056L35.4654 30.006H41.0648L42.9312 32.0058V56.0032C40.9397 56.6671 26.0397 61.9785 19.3653 78.2728C19.1319 78.8467 18.88 79.3986 18.6672 80.0006C13.9898 93.1671 17.5753 104.814 18.6672 107.998L9.33488 101.998V93.999C9.33488 90.7034 5.82219 88.8216 3.36219 90.7994C2.42149 91.5553 1.86902 92.7392 1.86902 93.999V107.998L16.8007 117.996H54.13Z" fill="#F4CD57"/>
<path d="M72.7947 85.9999C74.0545 85.874 76.1916 85.47 78.3941 84.0002C79.5401 83.2342 80.4434 82.3403 81.1863 81.4264C82.9968 79.2027 83.7508 76.8649 83.9934 76.001V70.5736V66.0021L78.3941 56.0032L72.7947 62.0026H69.0617H61.5959L55.9965 56.0032L50.3971 66.0021V70.5736V75.0451V76.001C50.6715 76.9809 51.6047 79.8486 53.9956 82.3043C54.5798 82.9023 55.2238 83.4842 55.9965 84.0002C58.1989 85.47 60.336 85.874 61.5959 85.9999V101.992V117.996H70.9282H82.127H100.792L108.257 113.997C108.478 113.571 112.375 105.73 108.257 97.9986C104.648 91.2194 97.8538 90.1135 97.0587 89.9995H81.6417H76.5276L72.7947 85.9999Z" fill="#EAEAEA"/>
<path d="M8.10651 88.6336C6.19525 87.6098 3.94803 87.8297 2.24021 89.2016C0.838495 90.3295 0.00231934 92.1233 0.00231934 93.9991V107.998C0.00231934 108.687 0.33455 109.327 0.879558 109.693L15.8113 119.692C16.108 119.89 16.4496 119.996 16.8005 119.996H54.1298H61.5956H100.791C101.081 119.996 101.368 119.924 101.626 119.786L109.092 115.787C109.429 115.607 109.706 115.321 109.889 114.969C110.083 114.597 114.547 105.774 109.877 97.0087C105.937 89.6055 98.7159 88.2197 97.3067 88.0177C97.2246 88.0057 97.1425 87.9997 97.0585 87.9997H77.3001L76.518 87.1618C77.5241 86.7858 78.4872 86.2939 79.3793 85.698C80.2958 85.086 81.0741 84.3981 81.7628 83.6842L89.0793 85.9239L90.104 82.0784L84.2508 80.2866C85.0235 78.8727 85.5088 77.5428 85.7794 76.5789C85.8317 76.391 85.8597 76.197 85.8597 76.001V71.8914L90.328 69.8397L88.8591 66.1641L85.8597 67.5419V66.0021C85.8597 65.6401 85.7682 65.2842 85.5928 64.9722L79.9934 54.9733C79.6985 54.4453 79.1908 54.0934 78.6215 54.0174C78.0597 53.9514 77.483 54.1514 77.0742 54.5893L72.0217 60.0027H70.928V34.8335L73.5672 32.0058H75.9618L81.0909 35.6694C81.9494 36.2833 83.1067 36.0333 83.6797 35.1154L87.4126 29.1161C87.8307 28.4442 87.8307 27.5703 87.4126 26.8983L79.9467 14.8996C79.5996 14.3417 79.0172 14.0077 78.3938 14.0077H72.7944C72.087 14.0077 71.4413 14.4357 71.124 15.1136L67.908 22.0069H47.8174L44.5996 15.1136C44.2842 14.4357 43.6384 14.0077 42.931 14.0077H35.4651C34.8623 14.0077 34.2967 14.3197 33.9477 14.8456L24.6154 28.8441C24.0853 29.638 24.1693 30.7279 24.8132 31.4198L28.5462 35.4194C29.1752 36.0953 30.1607 36.1953 30.9016 35.6694L36.0307 32.0058H40.2918L41.0645 32.8337V54.5713C36.1371 56.4891 22.6836 63.0684 16.9218 79.2907C13.523 88.8616 14.277 97.7967 15.5294 103.65L11.2011 100.866V93.9991C11.2011 91.7113 10.014 89.6555 8.10651 88.6336ZM72.7944 64.0023C73.2909 64.0023 73.765 63.7923 74.114 63.4164L78.0243 59.2288L82.1268 66.556V69.2557L75.792 72.1634L77.2609 75.839L82.1268 73.6053V75.695C81.8468 76.6169 81.3447 77.8728 80.5104 79.1407L77.0406 78.0788L76.016 81.9244L77.3561 82.3343C75.932 83.2722 74.3417 83.8382 72.6227 84.0101C71.9023 84.0821 71.2845 84.5941 71.04 85.322C70.7936 86.0519 70.9634 86.8658 71.4749 87.4138L75.2078 91.4133C75.5568 91.7893 76.0309 91.9993 76.5274 91.9993H96.926C97.9936 92.1733 103.636 93.3511 106.637 98.9905C109.709 104.76 107.61 110.745 106.861 112.509L100.351 115.997H83.4706L82.1268 111.673V106.604L84.5158 102.764C84.8126 102.284 85.3128 101.998 85.8485 101.998C86.6548 101.998 87.0692 102.568 87.2091 102.812C87.351 103.058 87.6403 103.71 87.2801 104.48L86.0557 107.104C85.6973 107.874 85.8373 108.803 86.4066 109.411L88.273 111.411C88.6221 111.787 89.0961 111.997 89.5926 111.997H98.9249V107.998H90.3653L89.9976 107.604L90.621 106.27C91.4535 104.486 91.3639 102.406 90.3859 100.71C89.4078 99.0145 87.7094 97.9986 85.8485 97.9986C84.0623 97.9986 82.403 98.9505 81.41 100.542L78.7074 104.888C78.504 105.218 78.3938 105.604 78.3938 105.998V111.997C78.3938 112.211 78.4274 112.425 78.4909 112.629L79.538 115.997H72.7944V101.998H69.0615V115.997H63.4621V101.992V85.9999C63.4621 84.968 62.7286 84.1041 61.7692 84.0081C60.403 83.8722 59.1207 83.4802 57.9355 82.8563L60.3862 81.8724L59.0741 78.1268L54.4826 79.9726C53.2712 78.4407 52.6049 76.8209 52.2633 75.695V75.0431V73.6033L57.1273 75.837L58.5962 72.1614L52.2633 69.2557V66.556L56.3658 59.2288L60.2761 63.4164C60.6251 63.7923 61.0992 64.0023 61.5956 64.0023H69.0615H72.7944ZM17.7057 109.711C18.3833 110.147 19.2456 110.079 19.8559 109.537C20.4644 108.995 20.6902 108.104 20.4177 107.308C19.0216 103.236 16.2256 92.4932 20.4102 80.7105C20.6846 79.9366 20.9963 79.2087 21.308 78.4827L21.3117 78.4847C27.5961 63.8523 40.8835 58.7789 43.4853 57.911C44.2674 57.653 44.7975 56.8791 44.7975 56.0032V32.0058C44.7975 31.4758 44.6015 30.9659 44.2506 30.5919L42.3841 28.5921C42.0351 28.2162 41.561 28.0062 41.0645 28.0062H35.4651C35.0975 28.0062 34.7354 28.1242 34.4293 28.3422L30.1028 31.4318L28.5704 29.79L36.4264 18.0073H41.7775L44.9953 24.9005C45.3107 25.5785 45.9565 26.0064 46.6639 26.0064H69.0615C69.7689 26.0064 70.4147 25.5785 70.732 24.9005L73.9479 18.0073H77.3953L83.6162 28.0062L81.6098 31.2319L77.5633 28.3422C77.2571 28.1242 76.8951 28.0062 76.5274 28.0062H72.7944C72.298 28.0062 71.8239 28.2162 71.4749 28.5921L67.7419 32.5917C67.391 32.9657 67.195 33.4756 67.195 34.0056V60.0027H62.3684L57.3158 54.5893C56.909 54.1514 56.336 53.9454 55.7685 54.0174C55.1974 54.0934 54.6916 54.4453 54.3967 54.9733L48.7973 64.9722C48.6219 65.2842 48.5304 65.6401 48.5304 66.0021V67.5419L45.5329 66.1661L44.0639 69.8417L48.5304 71.8914V75.0451V76.001C48.5304 76.197 48.5584 76.391 48.6107 76.5789C48.9541 77.8028 49.6316 79.6066 50.8355 81.4384L44.1423 84.1281L45.4545 87.8737L53.581 84.6081C54.0215 84.988 54.4975 85.354 55.0126 85.698C56.4442 86.6539 58.0494 87.3378 59.7311 87.7177V99.9864L48.6778 99.9484L48.6666 103.948L59.7292 103.986V115.997H55.9963C55.9963 111.585 52.6478 107.998 48.5304 107.998H44.7975C44.7975 98.0746 37.2626 89.9995 27.9993 89.9995H26.1328V93.9991H27.9993C35.202 93.9991 41.0645 100.278 41.0645 107.998V109.997C41.0645 111.101 41.8988 111.997 42.931 111.997H48.5304C50.5891 111.997 52.2633 113.791 52.2633 115.997H17.3362L3.73525 106.89V93.9991C3.73525 93.3731 4.01335 92.7752 4.47997 92.3992C5.05857 91.9353 5.78836 91.8633 6.43602 92.2113C7.08182 92.5572 7.46818 93.2251 7.46818 93.9991V101.998C7.46818 102.7 7.81347 103.352 8.37341 103.712L17.7057 109.711Z" fill="#2D2D2D"/>
<path d="M16.5937 70.7651C5.33516 55.4468 1.19721 39.7465 5.2437 27.6918C8.26737 18.6808 18.0271 4.9443 32.5146 4.0344C41.8656 3.47246 49.3296 11.7476 52.9151 15.7371C53.6001 16.497 54.1544 17.111 54.565 17.5009C54.7909 17.7169 55.0652 17.8709 55.3583 17.9489L55.5505 17.9989C56.1459 18.1569 56.7805 17.9909 57.2397 17.5509C57.6372 17.173 58.1729 16.585 58.8355 15.8551C62.4807 11.8435 70.0903 3.51445 79.4805 4.08239C93.9698 4.99429 103.728 18.7308 106.751 27.7418C111.352 41.4443 105.368 59.7243 90.7464 76.6405L93.4845 79.3582C109.073 61.3242 115.346 41.5223 110.266 26.388C106.904 16.3791 95.9931 1.11471 79.6988 0.0908246C68.6232 -0.623098 60.1924 8.6279 56.159 13.0674C56.0806 13.1534 56.0022 13.2394 55.9275 13.3214C55.823 13.2074 55.7166 13.0874 55.6028 12.9614C51.6309 8.54191 43.3028 -0.673092 32.2962 0.0428298C16.002 1.06672 5.09065 16.3291 1.72915 26.34C-2.7597 39.7185 1.5873 56.8127 13.6577 73.2389L16.5937 70.7651Z" fill="#2D2D2D"/>
<path d="M52.2636 34.0056H48.5306V38.0051H52.2636V34.0056Z" fill="#2D2D2D"/>
<path d="M63.4623 33.0056H59.7294V37.0051H63.4623V33.0056Z" fill="#2D2D2D"/>
<path d="M59.7294 42.0047H52.2635V46.0043H59.7294V42.0047Z" fill="#2D2D2D"/>
<path d="M63.4623 68.0019H59.7294V72.0014H63.4623V68.0019Z" fill="#2D2D2D"/>
<path d="M74.6611 68.0019H70.9282V72.0014H74.6611V68.0019Z" fill="#2D2D2D"/>
<path d="M69.0618 74.0012H65.3289V78.0008H69.0618V74.0012Z" fill="#2D2D2D"/>
</svg>
