<svg width="320" height="294" viewBox="0 0 320 294" fill="none" xmlns="http://www.w3.org/2000/svg">
<g clip-path="url(#clip0)">
<path d="M31.25 164.798C27.8003 164.798 25 167.364 25 170.525C25 173.687 27.8003 176.253 31.25 176.253C34.6997 176.253 37.5 173.687 37.5 170.525C37.5 167.364 34.6997 164.798 31.25 164.798Z" fill="#16536E"/>
<path d="M287.261 184.66L228.34 203.224C228.602 201.895 228.748 200.539 228.748 199.163C228.748 186.53 217.535 176.251 203.748 176.251H163.274C162.2 176.251 161.14 175.998 160.205 175.515L127.185 158.495C120.657 155.123 113.238 153.339 105.73 153.339H61.4235C58.8453 146.674 51.8971 141.886 43.7501 141.886H6.25001C2.79786 141.886 0 144.45 0 147.614V250.714C0 253.878 2.79786 256.442 6.25001 256.442H43.7501C51.7115 256.442 58.5377 251.858 61.2477 245.418C68.3229 246.224 76.5089 248.141 81.653 250.969L114.339 268.943C126.721 275.754 140.899 279.354 155.342 279.354C166.787 279.354 177.876 277.152 188.304 272.812L304.957 225.737C317.877 220.934 324.256 206.728 316.871 194.207C311.439 184.993 298.716 180.894 287.261 184.66ZM50.0001 239.285C49.9854 242.431 47.1852 244.986 43.7501 244.986H12.5V153.342H43.7501C47.1949 153.342 50.0001 155.91 50.0001 159.07V239.285ZM300.208 215.143C300.142 215.165 300.076 215.192 300.01 215.217C300.01 215.217 183.184 262.36 183.162 262.369C174.361 266.039 165 267.898 155.342 267.898C143.164 267.898 131.211 264.864 120.772 259.121L88.0837 241.147C81.0866 237.301 71.067 234.956 62.5001 234.016V164.798H105.73C111.092 164.798 116.389 166.068 121.055 168.478L154.075 185.499C156.873 186.944 160.056 187.709 163.274 187.709H203.748C210.64 187.709 216.248 192.847 216.248 199.165C216.248 205.459 210.638 210.621 203.748 210.621H140.213C136.761 210.621 133.963 213.185 133.963 216.349C133.963 219.511 136.761 222.075 140.213 222.075H203.748C207.847 222.075 211.883 221.142 215.464 219.392C215.464 219.392 291.429 195.46 291.458 195.451C297.059 193.598 303.392 195.442 305.875 199.653C309.598 205.965 306.519 212.827 300.208 215.143Z" fill="#16536E"/>
<path d="M182.029 153.603C183.206 154.536 184.663 155.002 186.123 155.002C187.583 155.002 189.043 154.536 190.217 153.603C241.211 113.101 272.754 92.6031 272.754 60.7504C272.754 35.5519 253.289 14.6696 225.943 14.6696C207.984 14.6696 194.231 24.1565 185.374 38.3935C176.536 24.1878 162.798 14.6696 144.812 14.6696C123.877 14.6696 106.375 27.1032 100.222 46.3433C99.2505 49.3795 101.15 52.5612 104.463 53.4517C107.776 54.3423 111.248 52.6015 112.217 49.5652C116.77 35.3259 129.563 26.1254 144.812 26.1254C162.642 26.1254 175.149 40.6355 179.351 54.1454C180.1 56.6267 182.566 58.3451 185.374 58.3451C188.184 58.3451 190.647 56.6267 191.397 54.1454C191.482 53.8657 200.164 26.1254 225.943 26.1254C245.503 26.1254 260.254 41.0091 260.254 60.7504C260.254 86.2308 233.076 104.6 186.118 141.707C157.507 119.189 134.78 103.339 121.863 87.8328C119.768 85.3179 115.847 84.8346 113.103 86.7543C110.359 88.6741 109.834 92.2675 111.926 94.7846C126.487 112.262 151.067 129.007 182.029 153.603Z" fill="#16536E"/>
<path d="M105.625 65.1314C102.176 65.1314 99.3752 67.6978 99.3752 70.8593C99.3752 74.0209 102.176 76.5873 105.625 76.5873C109.075 76.5873 111.875 74.0209 111.875 70.8593C111.875 67.6978 109.075 65.1314 105.625 65.1314Z" fill="#16536E"/>
</g>
<defs>
<clipPath id="clip0">
<rect width="320" height="293.27" fill="white" transform="translate(0 0.350006)"/>
</clipPath>
</defs>
</svg>
