<svg width="320" height="294" viewBox="0 0 320 294" fill="none" xmlns="http://www.w3.org/2000/svg">
<path d="M185 162.848C181.55 162.848 178.75 165.648 178.75 169.098C178.75 172.548 181.55 175.348 185 175.348C188.45 175.348 191.25 172.548 191.25 169.098C191.25 165.648 188.45 162.848 185 162.848Z" fill="#16536E"/>
<path d="M240.763 196.5C234.904 190.644 220.696 174.795 209.487 149.093C201.152 129.094 181.77 116.175 160.095 116.175C138.424 116.175 119.045 129.096 110.708 149.099C96.6454 181.353 77.4341 198.421 77.2498 198.583C77.2273 198.602 77.2054 198.622 77.1835 198.641C65.8523 208.787 59.3535 223.321 59.3535 238.516C59.3535 257.091 68.1991 273.246 83.5441 283.481C97.8416 293.02 115.562 295.88 132.159 291.33C140.477 289.051 150.104 287.846 160.001 287.846C170.065 287.846 179.835 289.091 188.253 291.446C204.362 295.955 222.044 293.483 236.641 283.838C252.162 273.583 261.161 257.276 261.161 238.516C261.161 222.016 253.732 206.726 240.763 196.5ZM229.748 273.409C218.484 280.851 204.587 283.038 191.62 279.408C182.12 276.75 171.186 275.346 159.999 275.346C149.002 275.346 138.232 276.705 128.853 279.275C115.749 282.868 101.763 280.611 90.4791 273.083C78.6979 265.224 71.8516 252.937 71.8516 238.515C71.8516 226.881 76.8241 215.752 85.4948 207.976C86.8285 206.806 107.111 188.648 122.186 154.045C122.2 154.012 122.214 153.98 122.227 153.947C128.607 138.595 143.47 128.675 160.092 128.675C176.721 128.674 191.587 138.592 197.965 153.941C197.978 153.973 197.992 154.006 198.006 154.038C210.247 182.132 226.008 199.476 232.216 205.63C232.395 205.806 232.583 205.972 232.781 206.126C242.872 213.966 248.659 225.772 248.659 238.515C248.66 253.057 241.703 265.511 229.748 273.409Z" fill="#16536E"/>
<path d="M202.025 187.73C200.141 184.838 196.27 184.018 193.377 185.903C190.484 187.788 189.666 191.66 191.55 194.551C201.061 209.153 210.078 218.878 214.608 223.376C217.057 225.807 221.014 225.794 223.448 223.344C225.879 220.895 225.865 216.937 223.416 214.505C219.238 210.357 210.904 201.364 202.025 187.73Z" fill="#16536E"/>
<path d="M139.744 85.704C145.749 75.2072 148.253 61.2653 146.613 47.4572C143.441 20.574 124.9 -1.94659 104.186 0.540913C94.8319 1.64779 86.5156 7.78779 80.765 17.8297C74.7631 28.3184 72.2594 42.2603 73.8956 56.0784C79.0775 99.9815 119.948 120.283 139.744 85.704ZM91.6137 24.039C95.035 18.0622 100.372 12.8647 107.251 12.8647C119.552 12.8647 131.893 29.3765 134.201 48.9265C135.532 60.1347 133.598 71.2765 128.896 79.4953C114.491 104.66 89.7125 83.444 86.3087 54.6109C84.9806 43.394 86.915 32.2509 91.6137 24.039Z" fill="#16536E"/>
<path d="M79.8767 152.926C81.6861 141.787 79.4873 129.467 73.6861 118.237C67.8823 107.003 59.1061 98.0803 48.973 93.1103C38.2111 87.8315 27.1898 87.559 17.9398 92.3422C8.68984 97.1215 2.5386 106.267 0.617346 118.097C-1.19203 129.237 1.00672 141.555 6.80797 152.787C12.6123 164.017 21.3886 172.938 31.5217 177.908C41.578 182.841 52.7192 183.763 62.553 178.682C71.8042 173.903 77.9567 164.755 79.8767 152.926ZM56.8161 167.577C51.1723 170.494 44.1448 170.177 37.0267 166.686C29.283 162.888 22.4955 155.913 17.9136 147.048C13.3342 138.183 11.573 128.613 12.9555 120.1C14.2261 112.277 18.0348 106.363 23.6792 103.447C23.6798 103.447 23.6805 103.447 23.6811 103.446C29.9223 100.219 37.1511 101.234 43.4686 104.333C51.2117 108.131 57.9992 115.107 62.5811 123.974C67.1605 132.84 68.9217 142.41 67.5392 150.923C66.2692 158.747 62.4605 164.66 56.8161 167.577Z" fill="#16536E"/>
<path d="M206.874 103.294C225.821 103.294 243.117 82.6078 246.248 56.1984C249.577 28.0647 235.402 0.484039 212.886 0.484039C193.936 0.484039 176.642 21.1709 173.518 47.5797C170.186 75.7647 184.403 103.294 206.874 103.294ZM185.932 49.0478C188.245 29.499 200.589 12.9834 212.887 12.9834C213.466 12.9834 213.965 13.0115 214.412 13.0697C221.076 13.8103 226.235 19.6347 229.273 25.5815C233.407 33.6697 235.07 44.2934 233.836 54.7278C231.434 74.9803 218.01 92.3509 205.35 90.7078C205.327 90.7053 205.304 90.7022 205.281 90.699C199.598 90.0303 194.207 85.474 190.492 78.199C186.36 70.1103 184.698 59.4853 185.932 49.0478Z" fill="#16536E"/>
<path d="M319.384 118.121C315.431 93.7803 293.427 82.144 271.028 93.1353C250.072 103.415 236.38 129.896 240.124 152.951C244.124 177.581 266.347 188.791 288.479 177.934C309.441 167.652 323.127 141.174 319.384 118.121ZM282.974 166.711C275.857 170.201 268.829 170.517 263.185 167.601V167.602C257.541 164.685 253.732 158.77 252.462 150.948C249.604 133.35 260.486 112.231 276.533 104.357C291.239 97.1421 304.416 103.935 307.046 120.125C309.898 137.69 299.051 158.826 282.974 166.711Z" fill="#16536E"/>
</svg>
