<svg width="320" height="280" viewBox="0 0 320 280" fill="none" xmlns="http://www.w3.org/2000/svg">
<path d="M265.95 201.117C263.611 201.117 261.277 201.287 258.965 201.593V180.729C258.965 178.074 256.868 175.92 254.277 175.92C251.689 175.92 249.59 178.074 249.59 180.729V225.464C249.265 225.454 248.943 225.439 248.616 225.439C245.061 225.439 241.624 225.97 238.369 226.942V181.217C238.369 174.933 233.386 169.821 227.261 169.821H215.706C209.58 169.821 204.597 174.933 204.597 181.217V232.41H190.227V181.217C190.227 174.933 185.244 169.821 179.121 169.821H129.209C123.083 169.821 118.101 174.933 118.101 181.217V232.41H103.733V181.217C103.733 174.933 98.7476 169.821 92.6245 169.821H81.0693C74.9438 169.821 69.9609 174.933 69.9609 181.217V232.41H58.7378V133.915L154.163 46.0201L249.59 133.915V159.788C249.59 162.443 251.689 164.597 254.277 164.597C256.868 164.597 258.965 162.443 258.965 159.788V142.551L260.691 144.139C265.249 148.337 272.285 147.948 276.377 143.272L287.1 131.02C291.191 126.344 290.813 119.125 286.255 114.927L235.015 67.7327C233.088 65.9569 230.125 66.1222 228.394 68.0959C226.665 70.0745 226.824 73.1126 228.75 74.8884L279.993 122.086C280.703 122.739 280.762 123.866 280.125 124.595L269.399 136.848C268.762 137.577 267.664 137.637 266.953 136.983L157.295 35.979C155.513 34.3385 152.815 34.3385 151.033 35.979L41.3745 136.981C40.9082 137.409 40.3882 137.449 40.1221 137.434C39.856 137.419 39.3433 137.324 38.9258 136.845L28.2031 124.595C27.5659 123.864 27.6245 122.739 28.335 122.083L147.644 12.19C151.36 8.76871 156.968 8.76871 160.684 12.19L213.555 60.8875C215.481 62.6633 218.445 62.498 220.173 60.5244C221.904 58.5457 221.743 55.5076 219.819 53.7318L166.946 5.0343C159.658 -1.6781 148.669 -1.6781 141.382 5.0343L22.0728 114.927C17.5146 119.125 17.1362 126.344 21.228 131.02L31.9507 143.272C33.9331 145.536 36.6553 146.874 39.6191 147.037C39.8242 147.049 40.0269 147.054 40.2295 147.054C42.9712 147.054 45.5811 146.03 47.6367 144.139L49.3628 142.548V201.325C39.2407 202.209 29.6899 205.953 21.5015 212.3C19.436 213.9 19.0259 216.916 20.5884 219.035C21.5088 220.287 22.9126 220.946 24.3311 220.946C25.3149 220.946 26.3086 220.628 27.1533 219.974C33.6963 214.902 41.2988 211.844 49.3628 210.99V270.38H11.4404C10.0684 265.931 9.375 261.298 9.375 256.564C9.375 248.762 11.3281 241.051 15.022 234.263C16.2842 231.944 15.4761 229.016 13.2153 227.718C10.9546 226.426 8.09814 227.255 6.83838 229.574C2.36328 237.792 0 247.124 0 256.564C0 263.605 1.26953 270.467 3.77441 276.959C4.48242 278.795 6.21094 280 8.13477 280H311.865C313.789 280 315.518 278.795 316.226 276.959C318.73 270.467 320 263.605 320 256.564C320 225.99 295.752 201.117 265.95 201.117V201.117ZM213.972 181.217C213.972 180.238 214.749 179.442 215.706 179.442H227.261C228.215 179.442 228.994 180.238 228.994 181.217V231.292C228.445 231.651 227.905 232.024 227.378 232.41H213.972V181.217ZM218.203 242.027C214.226 248.046 211.899 255.302 211.899 263.106C211.899 265.568 212.134 268 212.59 270.382H190.227V242.027H218.203ZM129.207 179.442H179.119C180.073 179.442 180.852 180.238 180.852 181.217V270.382H127.476V181.217C127.476 180.238 128.252 179.442 129.207 179.442V179.442ZM79.3335 181.217C79.3335 180.238 80.1123 179.442 81.0669 179.442H92.6221C93.5767 179.442 94.3555 180.238 94.3555 181.217V232.41H79.3335V181.217ZM58.7378 270.382V242.027H118.101V270.382H58.7378ZM254.277 270.382H222.202C221.587 268.023 221.277 265.586 221.277 263.106C221.277 247.64 233.54 235.057 248.616 235.057C263.691 235.057 275.957 247.64 275.957 263.106C275.957 265.588 275.647 268.023 275.032 270.382H254.277ZM308.56 270.382H284.644C285.098 268 285.332 265.568 285.332 263.106C285.332 246.022 274.185 231.568 258.965 226.972V211.296C261.265 210.925 263.606 210.734 265.95 210.734C290.583 210.734 310.625 231.292 310.625 256.564C310.625 261.298 309.932 265.931 308.56 270.382V270.382Z" fill="#16536E"/>
<path d="M170.215 235.175C172.805 235.175 174.902 233.021 174.902 230.366V224.911C174.902 222.256 172.805 220.102 170.215 220.102C167.625 220.102 165.527 222.256 165.527 224.911V230.366C165.527 233.021 167.625 235.175 170.215 235.175Z" fill="#16536E"/>
<path d="M123.823 122.369C123.823 139.533 137.434 153.496 154.162 153.496C170.893 153.496 184.504 139.533 184.504 122.369C184.504 105.207 170.893 91.2438 154.162 91.2438C137.434 91.2438 123.823 105.207 123.823 122.369V122.369ZM175.129 122.369C175.129 134.231 165.725 143.879 154.162 143.879C142.602 143.879 133.198 134.231 133.198 122.369C133.198 110.509 142.602 100.862 154.162 100.862C165.725 100.862 175.129 110.509 175.129 122.369Z" fill="#16536E"/>
</svg>
