<svg width="24" height="24" viewBox="0 0 24 24" fill="none" xmlns="http://www.w3.org/2000/svg">
<path fill-rule="evenodd" clip-rule="evenodd" d="M8.4 0C6.74311 0 5.4 1.41351 5.4 3.15716C5.4 4.90082 6.74311 6.31433 8.4 6.31433C10.0568 6.31433 11.4 4.90082 11.4 3.15716C11.4 1.41351 10.0568 0 8.4 0ZM3 5.05147C1.34311 5.05147 0 6.46499 0 8.20863C0 9.95226 1.34311 11.3658 3 11.3658C4.65689 11.3658 6 9.95226 6 8.20863C6 6.46499 4.65689 5.05147 3 5.05147ZM12.6 3.15716C12.6 1.41351 13.9432 0 15.6 0C17.2568 0 18.6 1.41351 18.6 3.15716C18.6 4.90082 17.2568 6.31433 15.6 6.31433C13.9432 6.31433 12.6 4.90082 12.6 3.15716ZM21 5.05147C19.3432 5.05147 18 6.46499 18 8.20863C18 9.95226 19.3432 11.3658 21 11.3658C22.6568 11.3658 24 9.95226 24 8.20863C24 6.46499 22.6568 5.05147 21 5.05147ZM17.3322 13.6458C17.68 14.077 18.0331 14.515 18.408 14.9776C18.5014 15.076 18.5962 15.175 18.6917 15.2747C20.2016 16.8523 21.8899 18.6163 21.5401 21.0393C21.192 22.3148 20.3161 23.6029 18.744 23.9692C18.3409 24.0505 17.5312 23.9394 16.4843 23.7955C15.2564 23.6269 13.7024 23.4135 12.0961 23.4135H11.88C10.2871 23.4135 8.74585 23.6269 7.52285 23.7963C6.46099 23.9434 5.63906 24.0572 5.23199 23.9692C3.66006 23.6029 2.78408 22.3274 2.43604 21.0393C2.0975 18.6293 3.78472 16.8664 5.29424 15.2895C5.39048 15.189 5.48584 15.0893 5.58002 14.9902C6.25738 14.164 6.86059 13.4158 7.48154 12.6454C7.82886 12.2148 8.18159 11.7772 8.556 11.3153C9.11998 10.6333 9.81612 9.95138 10.656 9.64829C10.788 9.59778 10.92 9.55989 11.052 9.53463C11.364 9.47149 11.688 9.47149 12 9.47149C12.312 9.47149 12.636 9.47149 12.936 9.522C13.068 9.54726 13.2 9.58515 13.332 9.63566C14.1721 9.93875 14.88 10.6207 15.432 11.3026C16.1088 12.1283 16.7117 12.876 17.3322 13.6458Z"/>
</svg>
