<svg width="24" height="24" viewBox="0 0 24 24" fill="none" xmlns="http://www.w3.org/2000/svg">
<path fill-rule="evenodd" clip-rule="evenodd" d="M21.2553 12C21.2553 12.408 21.2183 12.792 21.1688 13.176L23.7718 15.156C24.0064 15.336 24.0679 15.66 23.9199 15.924L21.4526 20.076C21.3045 20.34 20.9838 20.448 20.7 20.34L17.6282 19.14C16.9867 19.608 16.296 20.016 15.5434 20.316L15.0746 23.496C15.0375 23.784 14.7785 24 14.4701 24H9.53546C9.22702 24 8.96785 23.784 8.93096 23.496L8.46216 20.316C7.70964 20.016 7.01871 19.62 6.37718 19.14L3.30537 20.34C3.034 20.436 2.70088 20.34 2.55285 20.076L0.0855225 15.924C-0.0625174 15.66 -0.00077229 15.336 0.23355 15.156L2.83657 13.176C2.78718 12.792 2.75028 12.396 2.75028 12C2.75028 11.604 2.78718 11.208 2.83657 10.824L0.23355 8.844C-0.00077229 8.664 -0.0748664 8.34001 0.0855225 8.07601L2.55285 3.92399C2.70088 3.65999 3.02165 3.55199 3.30537 3.65999L6.37718 4.85999C7.01871 4.392 7.70964 3.98401 8.46216 3.68401L8.93096 0.504012C8.96785 0.215988 9.22702 0 9.53546 0H14.4701C14.7785 0 15.0375 0.215988 15.0746 0.504012L15.5434 3.68401C16.296 3.98401 16.9867 4.37999 17.6282 4.85999L20.7 3.65999C20.9715 3.564 21.3045 3.65999 21.4526 3.92399L23.9199 8.07601C24.0679 8.34001 24.0064 8.664 23.7718 8.844L21.1688 10.824C21.2183 11.208 21.2553 11.592 21.2553 12ZM7.68494 12C7.68494 14.316 9.6217 16.2 12.0028 16.2C14.3838 16.2 16.3206 14.316 16.3206 12C16.3206 9.684 14.3838 7.8 12.0028 7.8C9.6217 7.8 7.68494 9.684 7.68494 12Z" />
</svg>
